<svg height="512pt" viewBox="0 0 512 512" width="512pt" xmlns="http://www.w3.org/2000/svg"><path d="m397 77c-26.359375 0-52.121094 9.148438-72.53125 25.757812-16.425781 13.367188-28.863281 31.085938-35.886719 50.859376-18.980469-10.90625-40.359375-16.617188-62.582031-16.617188-27.929688 0-54.390625 8.953125-76.515625 25.886719-18.46875 14.136719-32.800781 33.363281-41.125 54.933593-4.335937-1.203124-8.835937-1.820312-13.359375-1.820312-27.570312 0-50 22.429688-50 50 0 2.292969.15625 4.574219.46875 6.835938-27.527344 13.164062-45.46875 41.132812-45.46875 72.164062 0 44.113281 35.886719 80 80 80 8.667969 0 17.097656-1.355469 25.164062-4.035156 7.496094 14.488281 18.414063 26.917968 31.984376 36.3125 16.75 11.59375 36.410156 17.722656 56.851562 17.722656 10.734375 0 21.1875-1.667969 31.203125-4.964844 9.382813 24.898438 33.324219 41.964844 60.796875 41.964844 35.839844 0 65-29.160156 65-65 0-4.769531-.515625-9.476562-1.539062-14.082031 10.363281-5.484375 17.445312-15.941407 18.421874-28.039063 34.3125-16.707031 56.117188-51.265625 56.117188-89.878906 0-3.691406-.203125-7.386719-.609375-11.054688 23.226563-5.46875 44.324219-18.121093 60.207031-36.28125 18.316406-20.941406 28.402344-47.8125 28.402344-75.664062 0-63.410156-51.589844-115-115-115zm13.554688 209.035156c-.035157.003906-.066407.015625-.101563.019532-4.425781.625-8.949219.945312-13.453125.945312-5.523438 0-10 4.476562-10 10s4.476562 10 10 10c2.191406 0 4.386719-.078125 6.578125-.203125.277344 2.722656.421875 5.464844.421875 8.203125 0 32.769531-19.628906 61.886719-50.007812 74.183594-4.257813 1.722656-6.792969 6.125-6.148438 10.675781 1.101562 7.761719-4.308594 15.601563-12.371094 16.933594-6.167968 1.019531-9.972656 7.773437-7.664062 13.566406 2.117187 5.316406 3.191406 10.914063 3.191406 16.640625 0 24.8125-20.1875 45-45 45-21.851562 0-40.476562-15.59375-44.289062-37.082031-1.128907-6.363281-8.21875-10.035157-14.058594-7.324219-10.582032 4.914062-21.902344 7.40625-33.652344 7.40625-33.039062 0-62.246094-19.847656-74.410156-50.558594-.058594-.148437-.128906-.285156-.195313-.425781-.046875-.144531-.085937-.289063-.140625-.429687-3.484375-9.113282-5.253906-18.730469-5.253906-28.585938 0-5.523438-4.476562-10-10-10s-10 4.476562-10 10c0 9.316406 1.273438 18.464844 3.78125 27.304688-5.71875 1.777343-11.664062 2.695312-17.78125 2.695312-33.085938 0-60-26.914062-60-60 0-22.550781 12.636719-42.933594 32.195312-53.160156 2.074219 3.429687 4.550782 6.621094 7.449219 9.515625 3.660157 3.660156 10.285157 3.859375 14.140625 0 3.90625-3.90625 3.90625-10.238281 0-14.140625-5.484375-5.488282-8.785156-13.464844-8.785156-21.214844 0-16.542969 13.457031-30 30-30 5.316406 0 10.601562 1.460938 15.183594 4.148438 6.117187 3.582031 12.761718 12.046874 20.171875 4.636718 3.90625-3.902344 3.90625-10.234375 0-14.140625-1.292969-1.292969-2.652344-2.503906-4.066407-3.640625 15.015626-41.550781 55.023438-70.003906 99.710938-70.003906 20.589844 0 40.308594 5.84375 57.425781 16.917969-.941406 5.960937-1.425781 12.011719-1.425781 18.082031 0 5.523438 4.476562 10 10 10s10-4.476562 10-10c0-6.914062.75-13.792969 2.222656-20.5 9.492188-43.167969 48.507813-74.5 92.777344-74.5 52.382812 0 95 42.617188 95 95 0 46.980469-35.011719 87.40625-81.445312 94.035156zm0 0"/><path d="m105 159c22.054688 0 40-17.945312 40-40s-17.945312-40-40-40-40 17.945312-40 40 17.945312 40 40 40zm0-60c11.027344 0 20 8.972656 20 20s-8.972656 20-20 20-20-8.972656-20-20 8.972656-20 20-20zm0 0"/><path d="m225 100c27.570312 0 50-22.429688 50-50s-22.429688-50-50-50-50 22.429688-50 50 22.429688 50 50 50zm0-80c16.542969 0 30 13.457031 30 30s-13.457031 30-30 30-30-13.457031-30-30 13.457031-30 30-30zm0 0"/><path d="m254.828125 240.929688c-6.734375-5.785157-15.734375-8.683594-26.992187-8.683594-11.265626 0-20.234376 2.894531-26.917969 8.683594-6.683594 5.789062-10.023438 14.945312-10.023438 27.46875v44.042968c0 12.527344 3.339844 21.683594 10.023438 27.46875 6.683593 5.789063 15.652343 8.683594 26.917969 8.683594 11.257812 0 20.257812-2.894531 26.992187-8.683594 6.734375-5.785156 10.105469-14.941406 10.105469-27.46875v-44.042968c0-12.523438-3.371094-21.679688-10.105469-27.46875zm-10.417969 71.511718c0 12.105469-5.527344 18.152344-16.574218 18.152344-10.949219 0-16.421876-6.050781-16.421876-18.152344v-44.042968c0-12.101563 5.472657-18.15625 16.421876-18.15625 11.046874 0 16.574218 6.054687 16.574218 18.15625zm0 0"/><path d="m313.726562 344.761719c2.246094-1.019531 3.992188-2.859375 5.238282-5.527344s1.867187-5.800781 1.867187-9.394531c0-10.808594-6.378906-16.214844-19.132812-16.214844-3.609375 0-6.769531.515625-9.476563 1.539062-2.707031 1.027344-4.769531 2.355469-6.183594 3.988282-1.410156 1.628906-2.449218 3.308594-3.109374 5.027344-.664063 1.722656-.996094 3.457031-.996094 5.210937 0 1.972656.375 3.304687 1.128906 3.992187s2.390625 1.03125 4.917969 1.03125c3.730469 0 5.597656-1.496093 5.597656-4.488281 0-4.007812 2.675781-6.011719 8.03125-6.011719 5.292969 0 7.941406 2.632813 7.941406 7.898438 0 3.53125-.71875 5.878906-2.148437 7.046875-1.433594 1.167969-3.464844 1.75-6.089844 1.75-2.332031 0-3.492188 1.53125-3.492188 4.601563 0 3.070312 1.140626 4.605468 3.429688 4.605468 6.617188 0 9.925781 2.855469 9.925781 8.570313v1.714843c0 3.429688-.765625 5.914063-2.300781 7.445313-1.535156 1.535156-3.984375 2.304687-7.355469 2.304687-2.886719 0-5.175781-.589843-6.859375-1.761718-1.683594-1.175782-2.523437-2.78125-2.523437-4.828125 0-1.503907-.421875-2.570313-1.265625-3.203125-.84375-.632813-2.4375-.949219-4.78125-.949219-2.046875 0-3.492188.332031-4.332032.992187-.84375.664063-1.265624 1.867188-1.265624 3.609376 0 4.214843 1.761718 8.003906 5.28125 11.375 3.519531 3.367187 8.675781 5.050781 15.476562 5.050781 6.4375 0 11.65625-1.625 15.65625-4.871094 4-3.25 6.003906-8.304687 6.003906-15.164063v-1.714843c-.003906-6.675781-3.0625-11.21875-9.183594-13.625zm0 0"/></svg>